<svg width="12" height="20" viewBox="0 0 12 20" fill="none" xmlns="http://www.w3.org/2000/svg">
<path d="M6.71429 8H11L10.5238 10H6.71429V19H4.80952V10H1V8H4.80952V6.128C4.80952 4.345 4.98667 3.698 5.3181 3.046C5.64287 2.40181 6.14458 1.87501 6.75809 1.534C7.37905 1.186 7.99524 1 9.69333 1C10.1905 1 10.6267 1.05 11 1.15V3H9.69333C8.43238 3 8.04857 3.078 7.65619 3.298C7.37454 3.45251 7.14484 3.69405 6.9981 3.99C6.78857 4.401 6.71429 4.804 6.71429 6.128V8Z" stroke="white" stroke-width="0.8"/>
</svg>
