<svg width="16" height="14" viewBox="0 0 16 14" fill="none" xmlns="http://www.w3.org/2000/svg">
<path d="M9.056 11.5165C8.79023 11.3386 8.27108 10.9777 7.84779 10.5706C7.63502 10.366 7.46649 10.1685 7.36429 9.994C7.25763 9.81188 7.26295 9.72448 7.26868 9.7012C7.26867 9.70128 7.26875 9.70108 7.26895 9.70056C7.27161 9.69382 7.29481 9.63496 7.37903 9.50913C7.46148 9.38595 7.57871 9.23287 7.72836 9.05307C8.0271 8.69416 8.43139 8.2569 8.88722 7.78488C9.54918 7.09941 10.302 6.35881 10.972 5.69966C11.2255 5.4503 11.4671 5.2126 11.6874 4.99396L11.3353 4.63902L11.6875 4.99395C11.869 4.81385 12.0139 4.6249 12.0977 4.43613C12.163 4.28905 12.2741 3.9396 12.021 3.65561C11.7684 3.37227 11.4084 3.44094 11.2524 3.48878C11.0527 3.55002 10.8422 3.67282 10.6314 3.8359C8.79847 5.25371 5.87532 7.39391 4.92666 7.98533C4.51523 8.24181 4.23603 8.3699 4.01745 8.42971C3.81296 8.48566 3.6423 8.48723 3.43463 8.45175L3.43454 8.45174C2.49001 8.29055 1.62346 8.04224 0.926223 7.74623C0.357432 7.50473 0.35797 6.67288 0.92811 6.42704L0.928135 6.42703L14.5399 0.55698L14.3419 0.0978535L14.5399 0.556979C15.021 0.349531 15.5838 0.759888 15.4897 1.34443L15.9834 1.42393L15.4897 1.34443L13.6837 12.5598C13.6837 12.5598 13.6837 12.5598 13.6837 12.5598C13.5602 13.3265 12.7594 13.7222 12.118 13.3654L12.118 13.3654C11.3121 12.9171 10.1232 12.2307 9.056 11.5165ZM9.056 11.5165L8.7779 11.932L9.056 11.5165ZM11.5544 4.44249C11.5544 4.44251 11.5538 4.44266 11.5526 4.44287L11.5544 4.44249ZM11.1858 4.02549C11.1862 4.0242 11.1865 4.02357 11.1865 4.02361L11.1858 4.02549Z" stroke="white"/>
</svg>
