<svg width="20" height="12" viewBox="0 0 20 12" fill="none" xmlns="http://www.w3.org/2000/svg">
<path d="M19.0623 0.669824L19.0567 0.688455L19.0526 0.70746C18.9998 0.952773 18.814 1.37535 18.5242 1.91383C18.243 2.43621 17.8906 3.0202 17.543 3.57016C17.1959 4.11908 16.857 4.62882 16.6046 5.00152C16.5781 5.04063 16.5526 5.07822 16.5281 5.11417L16.5044 5.09023L16.1711 5.63229C16.1673 5.63847 16.1635 5.64477 16.1595 5.65118C16.0589 5.81449 15.9128 6.05161 15.8906 6.32844C15.8645 6.65398 16.0062 6.92795 16.1952 7.1757C16.3373 7.37298 16.6028 7.63557 16.8532 7.88319C16.867 7.89686 16.8808 7.91049 16.8945 7.92406C17.1817 8.20829 17.4832 8.50796 17.7212 8.79158L17.7211 8.79167L17.7289 8.80061C18.1958 9.33075 18.5963 9.80998 18.9022 10.2283C19.2118 10.6517 19.397 10.9762 19.471 11.2052C19.5011 11.3119 19.5023 11.3778 19.4984 11.4114C19.4965 11.4277 19.4935 11.4356 19.4926 11.4378C19.4923 11.4385 19.4921 11.4389 19.4919 11.4391C19.4919 11.4392 19.4919 11.4392 19.4919 11.4392L19.4918 11.4392L19.4904 11.4405C19.4891 11.4416 19.4867 11.4436 19.4827 11.4461C19.4749 11.4512 19.4604 11.459 19.4367 11.4671C19.3877 11.484 19.3087 11.499 19.1921 11.499H17.0043C16.871 11.499 16.7807 11.474 16.6948 11.4286C16.5979 11.3773 16.4848 11.2883 16.3227 11.1241C16.1906 10.9904 16.0462 10.8282 15.8633 10.6227C15.8192 10.5732 15.7729 10.5211 15.7239 10.4663C15.4767 10.1897 15.1769 9.8597 14.7976 9.4765L14.7976 9.47644L14.7909 9.46989C13.4846 8.19903 12.8009 7.8996 12.2634 7.8996C12.0326 7.8996 11.6665 7.92232 11.4209 8.23035C11.3085 8.37139 11.2552 8.53259 11.2271 8.6788C11.1991 8.82464 11.1905 8.98702 11.1905 9.15779V11.14C11.1905 11.3569 11.1563 11.3598 11.1509 11.3602C11.1506 11.3602 11.1504 11.3603 11.1503 11.3603C11.0719 11.4135 10.8233 11.5 10.1285 11.5C8.01029 11.5 5.60428 10.1927 3.86597 7.67211L3.866 7.67209L3.86275 7.66749C2.52807 5.77806 1.68269 4.12519 1.17252 2.88078C0.917315 2.25831 0.746871 1.74019 0.640994 1.3478C0.531292 0.941239 0.5 0.702638 0.5 0.625105C0.5 0.575712 0.504581 0.548078 0.507994 0.534451C0.53273 0.523091 0.600715 0.501009 0.750557 0.501009H2.93835C3.14026 0.501009 3.19256 0.543221 3.21819 0.567072C3.26977 0.615066 3.34254 0.726085 3.44309 1.02098C3.99056 2.63114 4.72582 4.14168 5.42481 5.25725C5.77338 5.81355 6.12166 6.28569 6.44265 6.62545C6.60263 6.79478 6.7672 6.94345 6.93227 7.0532C7.08792 7.15669 7.29667 7.26122 7.53352 7.26122C7.63566 7.26122 7.77782 7.25057 7.92228 7.18472C8.08065 7.11253 8.19974 6.99371 8.27994 6.8473C8.41483 6.60106 8.43974 6.2698 8.43974 5.91833V2.66375V2.65029L8.43901 2.63685C8.39294 1.78182 8.13785 1.28451 7.87907 0.928827C7.82302 0.851791 7.76796 0.782954 7.72331 0.727124L7.7147 0.716363C7.66542 0.654714 7.63293 0.613342 7.60747 0.576146C7.58343 0.541028 7.57498 0.5227 7.57198 0.514841C7.57217 0.514637 7.57237 0.514428 7.57258 0.514216C7.57459 0.512201 7.5781 0.50936 7.5845 0.506719C7.59055 0.504224 7.60378 0.5 7.62734 0.5H11.0667C11.1125 0.5 11.1412 0.50396 11.1573 0.507349C11.161 0.517363 11.1658 0.532619 11.1706 0.554631C11.1827 0.610375 11.1915 0.693075 11.1915 0.812637V5.1914C11.1915 5.74427 11.4579 6.32356 12.0319 6.32356C12.5513 6.32356 12.9266 5.98217 13.4073 5.49372L13.4164 5.4845L13.4249 5.47482C14.2529 4.54156 14.9474 3.37056 15.4301 2.44897C15.673 1.98515 15.8656 1.57814 15.9977 1.28649C16.0638 1.14056 16.1148 1.02324 16.1496 0.941809C16.167 0.901087 16.1804 0.869319 16.1895 0.847414L16.2 0.82206L16.2019 0.817368C16.2509 0.703783 16.3046 0.631813 16.3635 0.586801C16.4161 0.546605 16.5086 0.5 16.6919 0.5H18.8807C18.9895 0.5 19.0552 0.512652 19.0904 0.523518C19.0893 0.55361 19.0826 0.601545 19.0623 0.669824ZM0.511634 0.523366C0.51165 0.523388 0.511477 0.523808 0.511064 0.524559L0.511634 0.523366ZM0.498152 0.539643C0.496959 0.540636 0.496284 0.541066 0.496244 0.541032C0.496205 0.540999 0.496801 0.540502 0.498152 0.539643ZM7.57041 0.50815C7.57041 0.50855 7.5704 0.508937 7.5704 0.509314C7.57039 0.509114 7.5704 0.508917 7.5704 0.508702C7.57041 0.508533 7.57041 0.508352 7.57041 0.50815ZM16.5971 5.89414L16.242 6.24609C16.2951 6.26809 16.3486 6.28315 16.4011 6.29278L16.5971 5.89414Z" stroke="white"/>
</svg>
