<svg width="18" height="11" viewBox="0 0 18 11" fill="none" xmlns="http://www.w3.org/2000/svg">
<path d="M15.9999 2.79753e-06C17.1045 2.99066e-06 17.9999 0.895435 17.9999 2C17.9999 3.10457 17.1045 4 15.9999 4C14.8953 4 13.9999 3.10457 13.9999 2C13.9999 0.895434 14.8953 2.6044e-06 15.9999 2.79753e-06Z" fill="#403C56"/>
<path d="M0.999878 3C0.447601 3 -0.000121817 2.55229 -0.000121721 2C-0.000121624 1.44771 0.447602 1 0.999878 1L9.99988 1C10.5522 1 10.9999 1.44771 10.9999 2C10.9999 2.55229 10.5522 3 9.99988 3L0.999878 3Z" fill="#403C56"/>
<path d="M2 6.55566C0.895416 6.55566 0 7.4511 0 8.55566C0 9.66023 0.895416 10.5557 2 10.5557C3.10458 10.5557 4 9.66023 4 8.55566C4 7.4511 3.10458 6.55566 2 6.55566Z" fill="#FF7715"/>
<path d="M17 9.55566C17.5523 9.55566 18 9.10796 18 8.55566C18 8.00337 17.5523 7.55566 17 7.55566L8 7.55566C7.44772 7.55566 7 8.00337 7 8.55566C7 9.10796 7.44772 9.55566 8 9.55566L17 9.55566Z" fill="#FF7715"/>
</svg>
