<svg xmlns="http://www.w3.org/2000/svg" width="145" height="29" viewBox="0 0 145 29" fill="none">
  <path d="M37.8513 3.65445V15.139H35.7262V10.2381H30.7322V15.139H28.5914V3.65445H30.7322V8.29689H35.7262V3.65445H37.8513Z" fill="#616164"/>
  <path d="M50.3947 10.7073L48.8795 5.96776L47.3571 10.7073H50.3947ZM47.7939 3.65445H49.9651L54.0138 15.139H51.8111L50.8964 12.2758H46.8524L45.9329 15.139H43.7302L47.7939 3.65445Z" fill="#616164"/>
  <path d="M59.8768 15.139V3.65445H62.0176V13.182H65.3835V3.65445H67.5234V13.182H70.8894V3.65445H73.0301V15.139H59.8768Z" fill="#616164"/>
  <path d="M90.8209 13.1824H95.3501V5.61176H92.0775L92.0469 7.22976C92.0155 8.35133 91.9558 9.30598 91.868 10.093C91.7804 10.88 91.6558 11.5269 91.4958 12.0336C91.3352 12.5411 91.1102 12.9232 90.8209 13.1824ZM87.6722 17.3394V13.1824H88.2616C88.5415 13.1824 88.7836 13.0688 88.9906 12.8425C89.1975 12.6161 89.3731 12.2552 89.5181 11.7588C89.6631 11.2629 89.7793 10.6184 89.8671 9.82586C89.9549 9.03327 90.0143 8.07081 90.0456 6.93847L90.139 3.6547H97.4751V13.1824H98.9331V17.3394H97.0566V15.1395H89.5496V17.3394H87.6722Z" fill="#616164"/>
  <path d="M111.963 11.7583C111.963 11.4669 111.906 11.2062 111.792 10.9736C111.678 10.7417 111.525 10.5586 111.334 10.4238C111.143 10.289 110.923 10.2216 110.675 10.2216H107.387V13.2461H110.567C110.825 13.2461 111.061 13.1797 111.272 13.0441C111.484 12.9094 111.652 12.7286 111.776 12.5021C111.901 12.2758 111.963 12.0284 111.963 11.7583ZM107.387 5.56287V8.45895H110.241C110.479 8.45895 110.696 8.39937 110.892 8.28038C111.089 8.16209 111.246 7.99534 111.366 7.77926C111.484 7.56388 111.544 7.30455 111.544 7.00301C111.544 6.71171 111.489 6.45881 111.381 6.24273C111.272 6.02734 111.127 5.85972 110.947 5.74143C110.766 5.62245 110.561 5.56287 110.334 5.56287H107.387ZM114.118 12.1789C114.118 12.8257 113.958 13.3677 113.638 13.8045C113.317 14.2415 112.885 14.5728 112.342 14.7993C111.8 15.0256 111.208 15.139 110.567 15.139H105.247V3.65445H111.141C111.657 3.65445 112.105 3.79775 112.482 4.08348C112.86 4.36939 113.149 4.73589 113.351 5.18317C113.553 5.63113 113.654 6.09699 113.654 6.58248C113.654 7.13224 113.519 7.65542 113.25 8.15115C112.981 8.64776 112.589 9.01409 112.071 9.25136C112.702 9.44573 113.201 9.79573 113.568 10.3024C113.935 10.81 114.118 11.4349 114.118 12.1789Z" fill="#616164"/>
  <path d="M124.759 0.322623H126.388L127.117 2.24755L126.093 2.66807L124.759 0.322623ZM122.278 0.322623H123.89L124.635 2.24755L123.611 2.66807L122.278 0.322623ZM121.952 9.3975C121.952 9.89323 122.024 10.3732 122.169 10.8369C122.314 11.3005 122.523 11.7132 122.797 12.0742C123.071 12.4351 123.407 12.7212 123.806 12.9317C124.203 13.1417 124.656 13.2465 125.162 13.2465C125.68 13.2465 126.14 13.1362 126.543 12.9154C126.946 12.6946 127.282 12.3978 127.551 12.0257C127.82 11.6537 128.024 11.2387 128.164 10.7805C128.303 10.3216 128.373 9.8611 128.373 9.3975C128.373 8.90107 128.298 8.42409 128.148 7.96587C127.998 7.50783 127.786 7.09738 127.512 6.73644C127.238 6.37549 126.902 6.08958 126.504 5.87889C126.106 5.66889 125.659 5.56328 125.162 5.56328C124.635 5.56328 124.172 5.67462 123.774 5.89539C123.376 6.11616 123.043 6.41075 122.774 6.77708C122.505 7.14376 122.3 7.55317 122.161 8.00583C122.021 8.45935 121.952 8.92295 121.952 9.3975ZM125.147 15.2202C124.34 15.2202 123.609 15.0588 122.952 14.7354C122.295 14.4118 121.732 13.9725 121.261 13.4165C120.791 12.8614 120.426 12.2356 120.167 11.5401C119.909 10.8448 119.78 10.1305 119.78 9.3975C119.78 8.63166 119.917 7.90091 120.191 7.2056C120.465 6.51011 120.842 5.88983 121.324 5.34563C121.804 4.8004 122.372 4.3698 123.029 4.05106C123.686 3.73319 124.408 3.57426 125.194 3.57426C125.989 3.57426 126.716 3.74188 127.373 4.0752C128.029 4.40975 128.59 4.85754 129.056 5.41841C129.521 5.97911 129.883 6.60408 130.141 7.29401C130.4 7.98463 130.529 8.69662 130.529 9.42963C130.529 10.1845 130.395 10.9097 130.126 11.6052C129.857 12.3005 129.482 12.9208 129.002 13.4652C128.52 14.0102 127.951 14.4386 127.295 14.7509C126.638 15.0642 125.923 15.2202 125.147 15.2202Z" fill="#616164"/>
  <path d="M138.966 9.33213H141.448C141.706 9.33213 141.939 9.25692 142.146 9.1058C142.353 8.95451 142.518 8.73599 142.642 8.45026C142.767 8.16522 142.829 7.83867 142.829 7.47217C142.829 7.07266 142.759 6.7336 142.619 6.45256C142.48 6.17308 142.299 5.96238 142.076 5.82203C141.853 5.68186 141.614 5.61133 141.355 5.61133H138.966V9.33213ZM136.826 15.139V3.65427H141.494C142.001 3.65427 142.466 3.76249 142.89 3.97788C143.315 4.19396 143.684 4.48525 144 4.85175C144.315 5.21826 144.56 5.62784 144.737 6.08049C144.912 6.53402 145 6.99762 145 7.47217C145 8.11902 144.855 8.73391 144.565 9.31563C144.276 9.89838 143.878 10.3728 143.372 10.7394C142.865 11.1059 142.265 11.2892 141.572 11.2892H138.966V15.139H136.826Z" fill="#616164"/>
  <path d="M45.7879 25.2709H28.5134V24.6412H45.7879V25.2709Z" fill="#616164"/>
  <path d="M143.792 25.5946H125.184V24.9648H143.792V25.5946Z" fill="#616164"/>
  <path d="M13.9229 11.8389C12.8272 12.4043 11.9485 12.9463 11.0043 13.3255C9.354 13.9878 7.65955 14.5396 5.99066 15.1569C3.81791 15.9605 1.78878 16.9936 0.190993 19.1265C0.14179 18.5878 0.0965863 18.3224 0.0965863 18.0572C0.0946738 13.6009 0.117102 9.14437 0.0849373 4.68848C0.0788522 3.84882 0.353901 3.62388 1.1714 3.64751C3.17602 3.70535 3.19062 3.66644 3.20801 5.62628C3.22644 7.69607 3.21235 9.76621 3.22087 11.8363C3.22209 12.1368 3.26955 12.4372 3.31145 12.9214C6.02838 11.8379 8.66186 10.9329 11.1608 9.74501C13.167 8.79141 13.9996 6.88889 14.1041 4.72235C14.146 3.8549 14.4612 3.61555 15.3107 3.64594C17.376 3.72029 17.3852 3.30272 17.2059 5.77271C17.0004 8.60573 17.0434 11.4594 17.0613 14.3037C17.067 15.2014 16.7751 15.4269 15.9237 15.4078C13.9257 15.3628 13.9248 15.4012 13.9229 13.4048C13.9226 12.9491 13.9229 12.4934 13.9229 11.8389Z" fill="#F5D165"/>
  <path d="M15.7407 26.1103C15.4817 26.1103 15.2212 26.0922 14.9643 26.1139C14.43 26.1596 14.2134 25.9354 14.123 25.3964C13.7097 22.9307 12.2668 21.3912 9.83067 20.7944C6.90407 20.0772 3.64799 22.2762 3.30062 25.2698C3.21925 25.9698 2.95185 26.1692 2.33117 26.1085C2.24563 26.1002 2.1587 26.1072 2.07229 26.1066C-0.285443 26.0865 -0.26684 26.5232 0.356452 23.8091C1.32295 19.6015 5.95496 16.8058 10.2019 17.6446C14.071 18.4087 16.5781 20.9733 17.2898 24.8954C17.5026 26.0686 17.4722 26.1042 16.2587 26.1039H15.7407V26.1103Z" fill="#E29077"/>
  <path d="M10.9527 26.1263C10.91 27.3142 9.78961 28.4315 8.68767 28.3856C7.47291 28.3349 6.41861 27.2126 6.44608 25.9997C6.47442 24.7497 7.58818 23.7018 8.81007 23.7753C10.0184 23.8481 10.9962 24.9208 10.9527 26.1263Z" fill="#86A47C"/>
  <path d="M64.6334 27.2505C64.8965 27.0036 65.0281 26.6775 65.0281 26.2719C65.0281 25.8667 64.8965 25.5389 64.6334 25.2886C64.3702 25.0385 64.004 24.9133 63.535 24.9133H61.5855V27.6212H63.535C64.004 27.6212 64.3702 27.4977 64.6334 27.2505ZM63.1737 22.234L61.5855 22.2433V24.4667H63.1737C63.5666 24.4667 63.8693 24.3656 64.0818 24.1627C64.2942 23.9602 64.4004 23.6909 64.4004 23.355C64.4004 23.013 64.2958 22.7406 64.0864 22.5379C63.8773 22.3354 63.573 22.234 63.1737 22.234ZM65.5321 26.2815C65.5321 26.8073 65.3577 27.2363 65.0091 27.5688C64.6604 27.9014 64.1849 28.0676 63.5826 28.0676H61.0908V21.7969H63.2211C63.741 21.7969 64.1532 21.938 64.4575 22.2197C64.7617 22.5016 64.914 22.8704 64.914 23.3265C64.914 23.903 64.6731 24.3276 64.1913 24.5996C64.6096 24.701 64.9377 24.9008 65.1755 25.1983C65.4132 25.496 65.5321 25.8573 65.5321 26.2815Z" fill="#616164"/>
  <path d="M75.0705 24.923C75.083 24.1569 74.8247 23.501 74.2955 22.9563C73.7659 22.4117 73.1271 22.1456 72.3792 22.1581C71.6246 22.1456 70.9827 22.4117 70.4533 22.9563C69.9239 23.501 69.6655 24.1569 69.6782 24.923C69.6655 25.6958 69.9239 26.3547 70.4533 26.8994C70.9827 27.4443 71.6246 27.7102 72.3792 27.6975C73.1271 27.7102 73.7659 27.4427 74.2955 26.8947C74.8247 26.3469 75.083 25.6896 75.0705 24.923ZM69.1553 24.9326C69.1361 24.0394 69.4468 23.2746 70.0871 22.638C70.7275 22.0016 71.4883 21.6897 72.3696 21.7022C73.2446 21.6897 74.0053 22.003 74.652 22.6427C75.2986 23.2826 75.6126 24.0459 75.5935 24.9326C75.6126 25.8195 75.2986 26.5843 74.652 27.2273C74.0053 27.87 73.2446 28.182 72.3696 28.1629C71.4883 28.182 70.7275 27.87 70.0871 27.2273C69.4468 26.5843 69.1361 25.8195 69.1553 24.9326Z" fill="#616164"/>
  <path d="M79.2645 24.9324C79.2455 24.0393 79.5562 23.2745 80.1964 22.6379C80.8369 22.0015 81.5975 21.6895 82.4788 21.702C82.9987 21.702 83.4806 21.8146 83.9247 22.0393C84.368 22.2644 84.7328 22.5762 85.0183 22.9752L84.6471 23.2698C84.121 22.5286 83.4013 22.158 82.4884 22.158C81.7338 22.1455 81.0919 22.4116 80.5625 22.9561C80.0331 23.501 79.7748 24.1567 79.7876 24.9229C79.7748 25.6958 80.0331 26.3547 80.5625 26.8992C81.0919 27.4441 81.7338 27.7101 82.4884 27.6974C83.4013 27.6974 84.121 27.3302 84.6471 26.5953L85.0183 26.8897C84.7328 27.2887 84.368 27.6008 83.9247 27.8256C83.4806 28.0505 82.9987 28.1629 82.4788 28.1629C81.5975 28.1818 80.8369 27.8699 80.1964 27.2272C79.5562 26.5843 79.2455 25.8193 79.2645 24.9324Z" fill="#616164"/>
  <path d="M90.7143 28.0681V22.2438H88.4222V21.7973H93.5103V22.2438H91.2087V28.0681H90.7143Z" fill="#616164"/>
  <path d="M102.346 24.923C102.358 24.1569 102.1 23.501 101.57 22.9563C101.041 22.4117 100.402 22.1456 99.6542 22.1581C98.8996 22.1456 98.2576 22.4117 97.7283 22.9563C97.1988 23.501 96.9404 24.1569 96.9533 24.923C96.9404 25.6958 97.1988 26.3547 97.7283 26.8994C98.2576 27.4443 98.8996 27.7102 99.6542 27.6975C100.402 27.7102 101.041 27.4427 101.57 26.8947C102.1 26.3469 102.358 25.6896 102.346 24.923ZM96.4303 24.9326C96.411 24.0394 96.7217 23.2746 97.3622 22.638C98.0025 22.0016 98.7633 21.6897 99.6446 21.7022C100.52 21.6897 101.28 22.003 101.927 22.6427C102.574 23.2826 102.887 24.0459 102.869 24.9326C102.887 25.8195 102.574 26.5843 101.927 27.2273C101.28 27.87 100.52 28.182 99.6446 28.1629C98.7633 28.182 98.0025 27.87 97.3622 27.2273C96.7217 26.5843 96.411 25.8195 96.4303 24.9326Z" fill="#616164"/>
  <path d="M108.251 24.6857L111.523 28.0681H110.886L107.595 24.6761L110.638 21.7973H111.295L108.251 24.6857ZM106.968 21.7973H107.462V28.0681H106.968V21.7973Z" fill="#616164"/>
</svg>