<svg xmlns="http://www.w3.org/2000/svg" width="19" height="19" viewBox="0 0 19 19" fill="none">
<path d="M7.83448 1C9.13358 0.999857 10.4058 1.36992 11.5022 2.06683C12.5985 2.76375 13.4735 3.75865 14.0248 4.93499C14.576 6.11134 14.7806 7.4204 14.6146 8.70884C14.4485 9.99728 13.9188 11.2117 13.0874 12.2099L17.8017 16.9242C17.8835 17.0002 17.9433 17.0968 17.9748 17.2038C18.0063 17.3109 18.0083 17.4245 17.9807 17.5327C17.953 17.6408 17.8967 17.7395 17.8177 17.8183C17.7386 17.8971 17.6398 17.9532 17.5316 17.9806C17.4236 18.0083 17.3101 18.0063 17.2031 17.975C17.0961 17.9436 16.9995 17.884 16.9235 17.8024L12.2091 13.0881C11.3655 13.7905 10.3652 14.2794 9.29271 14.5135C8.22022 14.7475 7.10715 14.7198 6.04763 14.4327C4.98812 14.1456 4.01334 13.6075 3.20574 12.8641C2.39814 12.1206 1.78149 11.1935 1.40794 10.1613C1.03439 9.12912 0.91494 8.02214 1.05968 6.93401C1.20443 5.84589 1.60911 4.80862 2.23951 3.90997C2.8699 3.01131 3.70746 2.2777 4.68134 1.77118C5.65521 1.26466 6.73675 1.00014 7.83448 1ZM2.24189 7.83531C2.24189 8.56973 2.38655 9.29696 2.6676 9.97548C2.94866 10.654 3.3606 11.2705 3.87992 11.7898C4.39924 12.3091 5.01576 12.7211 5.69429 13.0021C6.37281 13.2832 7.10005 13.4278 7.83448 13.4278C8.5689 13.4278 9.29614 13.2832 9.97466 13.0021C10.6532 12.7211 11.2697 12.3091 11.789 11.7898C12.3083 11.2705 12.7203 10.654 13.0013 9.97548C13.2824 9.29696 13.4271 8.56973 13.4271 7.83531C13.4271 6.35208 12.8378 4.9296 11.789 3.8808C10.7402 2.83199 9.31772 2.24278 7.83448 2.24278C6.35123 2.24278 4.92874 2.83199 3.87992 3.8808C2.83111 4.9296 2.24189 6.35208 2.24189 7.83531Z" fill="#292929" stroke="#292929" stroke-width="0.2"/>
</svg>